<mxfile host="app.diagrams.net" agent="Mozilla/5.0 (Windows NT 10.0; Win64; x64) AppleWebKit/537.36 (KHTML, like Gecko) Chrome/133.0.0.0 Safari/537.36 OPR/118.0.0.0" version="27.1.1">
  <diagram name="PÃ¡gina-1" id="tSB9Squ7Dw1w4PCGXbyG">
    <mxGraphModel dx="1001" dy="540" grid="1" gridSize="10" guides="1" tooltips="1" connect="1" arrows="1" fold="1" page="1" pageScale="1" pageWidth="827" pageHeight="1169" math="0" shadow="0">
      <root>
        <mxCell id="0" />
        <mxCell id="1" parent="0" />
        <mxCell id="wttlkCXd7JM-oypYrL47-1" value="" style="shape=folder;fontStyle=1;spacingTop=10;tabWidth=40;tabHeight=14;tabPosition=left;html=1;whiteSpace=wrap;" parent="1" vertex="1">
          <mxGeometry x="90" y="50" width="1070" height="190" as="geometry" />
        </mxCell>
        <mxCell id="wttlkCXd7JM-oypYrL47-27" style="edgeStyle=orthogonalEdgeStyle;rounded=0;orthogonalLoop=1;jettySize=auto;html=1;" parent="1" source="wttlkCXd7JM-oypYrL47-2" target="wttlkCXd7JM-oypYrL47-13" edge="1">
          <mxGeometry relative="1" as="geometry" />
        </mxCell>
        <mxCell id="wttlkCXd7JM-oypYrL47-2" value="&lt;p style=&quot;margin: 6px 0px 0px;&quot;&gt;&lt;b&gt;&lt;font style=&quot;font-size: 16px;&quot;&gt;Login Form&lt;/font&gt;&lt;/b&gt;&lt;/p&gt;" style="align=center;overflow=fill;html=1;dropTarget=0;whiteSpace=wrap;" parent="1" vertex="1">
          <mxGeometry x="120" y="110" width="180" height="90" as="geometry" />
        </mxCell>
        <mxCell id="wttlkCXd7JM-oypYrL47-3" value="" style="shape=component;jettyWidth=8;jettyHeight=4;" parent="wttlkCXd7JM-oypYrL47-2" vertex="1">
          <mxGeometry x="1" width="20" height="20" relative="1" as="geometry">
            <mxPoint x="-24" y="4" as="offset" />
          </mxGeometry>
        </mxCell>
        <mxCell id="wttlkCXd7JM-oypYrL47-28" style="edgeStyle=orthogonalEdgeStyle;rounded=0;orthogonalLoop=1;jettySize=auto;html=1;" parent="1" source="wttlkCXd7JM-oypYrL47-4" target="wttlkCXd7JM-oypYrL47-15" edge="1">
          <mxGeometry relative="1" as="geometry" />
        </mxCell>
        <mxCell id="wttlkCXd7JM-oypYrL47-4" value="&lt;p style=&quot;margin: 6px 0px 0px;&quot;&gt;&lt;font style=&quot;font-size: 16px;&quot;&gt;&lt;b&gt;GalerryView&lt;/b&gt;&lt;/font&gt;&lt;/p&gt;" style="align=center;overflow=fill;html=1;dropTarget=0;whiteSpace=wrap;" parent="1" vertex="1">
          <mxGeometry x="340" y="110" width="180" height="90" as="geometry" />
        </mxCell>
        <mxCell id="wttlkCXd7JM-oypYrL47-5" value="" style="shape=component;jettyWidth=8;jettyHeight=4;" parent="wttlkCXd7JM-oypYrL47-4" vertex="1">
          <mxGeometry x="1" width="20" height="20" relative="1" as="geometry">
            <mxPoint x="-24" y="4" as="offset" />
          </mxGeometry>
        </mxCell>
        <mxCell id="wttlkCXd7JM-oypYrL47-29" style="edgeStyle=orthogonalEdgeStyle;rounded=0;orthogonalLoop=1;jettySize=auto;html=1;" parent="1" source="wttlkCXd7JM-oypYrL47-6" target="wttlkCXd7JM-oypYrL47-17" edge="1">
          <mxGeometry relative="1" as="geometry" />
        </mxCell>
        <mxCell id="wttlkCXd7JM-oypYrL47-6" value="&lt;p style=&quot;margin:0px;margin-top:6px;text-align:center;&quot;&gt;&lt;font style=&quot;font-size: 16px;&quot;&gt;&lt;b&gt;UploadForm&lt;/b&gt;&lt;/font&gt;&lt;/p&gt;" style="align=left;overflow=fill;html=1;dropTarget=0;whiteSpace=wrap;" parent="1" vertex="1">
          <mxGeometry x="550" y="110" width="180" height="90" as="geometry" />
        </mxCell>
        <mxCell id="wttlkCXd7JM-oypYrL47-7" value="" style="shape=component;jettyWidth=8;jettyHeight=4;" parent="wttlkCXd7JM-oypYrL47-6" vertex="1">
          <mxGeometry x="1" width="20" height="20" relative="1" as="geometry">
            <mxPoint x="-24" y="4" as="offset" />
          </mxGeometry>
        </mxCell>
        <mxCell id="wttlkCXd7JM-oypYrL47-8" value="&lt;p style=&quot;margin: 6px 0px 0px;&quot;&gt;&lt;b&gt;&lt;font style=&quot;font-size: 16px;&quot;&gt;UserProfile&lt;/font&gt;&lt;/b&gt;&lt;/p&gt;" style="align=center;overflow=fill;html=1;dropTarget=0;whiteSpace=wrap;" parent="1" vertex="1">
          <mxGeometry x="960" y="110" width="180" height="90" as="geometry" />
        </mxCell>
        <mxCell id="wttlkCXd7JM-oypYrL47-9" value="" style="shape=component;jettyWidth=8;jettyHeight=4;" parent="wttlkCXd7JM-oypYrL47-8" vertex="1">
          <mxGeometry x="1" width="20" height="20" relative="1" as="geometry">
            <mxPoint x="-24" y="4" as="offset" />
          </mxGeometry>
        </mxCell>
        <mxCell id="wttlkCXd7JM-oypYrL47-31" style="edgeStyle=orthogonalEdgeStyle;rounded=0;orthogonalLoop=1;jettySize=auto;html=1;" parent="1" source="wttlkCXd7JM-oypYrL47-10" target="wttlkCXd7JM-oypYrL47-19" edge="1">
          <mxGeometry relative="1" as="geometry" />
        </mxCell>
        <mxCell id="wttlkCXd7JM-oypYrL47-10" value="&lt;p style=&quot;margin: 6px 0px 0px;&quot;&gt;&lt;font style=&quot;font-size: 16px;&quot;&gt;&lt;b&gt;ImageCard&lt;/b&gt;&lt;/font&gt;&lt;/p&gt;" style="align=center;overflow=fill;html=1;dropTarget=0;whiteSpace=wrap;" parent="1" vertex="1">
          <mxGeometry x="760" y="110" width="180" height="90" as="geometry" />
        </mxCell>
        <mxCell id="wttlkCXd7JM-oypYrL47-11" value="" style="shape=component;jettyWidth=8;jettyHeight=4;" parent="wttlkCXd7JM-oypYrL47-10" vertex="1">
          <mxGeometry x="1" width="20" height="20" relative="1" as="geometry">
            <mxPoint x="-24" y="4" as="offset" />
          </mxGeometry>
        </mxCell>
        <mxCell id="wttlkCXd7JM-oypYrL47-12" value="" style="shape=folder;fontStyle=1;spacingTop=10;tabWidth=40;tabHeight=14;tabPosition=left;html=1;whiteSpace=wrap;" parent="1" vertex="1">
          <mxGeometry x="90" y="350" width="1210" height="350" as="geometry" />
        </mxCell>
        <mxCell id="wttlkCXd7JM-oypYrL47-13" value="&lt;p style=&quot;margin: 6px 0px 0px;&quot;&gt;&lt;font style=&quot;font-size: 16px;&quot;&gt;&lt;b style=&quot;&quot;&gt;AuthController&lt;/b&gt;&lt;/font&gt;&lt;/p&gt;" style="align=center;overflow=fill;html=1;dropTarget=0;whiteSpace=wrap;" parent="1" vertex="1">
          <mxGeometry x="150" y="400" width="180" height="90" as="geometry" />
        </mxCell>
        <mxCell id="wttlkCXd7JM-oypYrL47-14" value="" style="shape=component;jettyWidth=8;jettyHeight=4;" parent="wttlkCXd7JM-oypYrL47-13" vertex="1">
          <mxGeometry x="1" width="20" height="20" relative="1" as="geometry">
            <mxPoint x="-24" y="4" as="offset" />
          </mxGeometry>
        </mxCell>
        <mxCell id="wttlkCXd7JM-oypYrL47-15" value="&lt;p style=&quot;margin:0px;margin-top:6px;text-align:center;&quot;&gt;&lt;b&gt;&lt;font style=&quot;font-size: 16px;&quot;&gt;PortfolioController&lt;/font&gt;&lt;/b&gt;&lt;/p&gt;" style="align=left;overflow=fill;html=1;dropTarget=0;whiteSpace=wrap;" parent="1" vertex="1">
          <mxGeometry x="340" y="395" width="230" height="100" as="geometry" />
        </mxCell>
        <mxCell id="wttlkCXd7JM-oypYrL47-16" value="" style="shape=component;jettyWidth=8;jettyHeight=4;" parent="wttlkCXd7JM-oypYrL47-15" vertex="1">
          <mxGeometry x="1" width="20" height="20" relative="1" as="geometry">
            <mxPoint x="-24" y="4" as="offset" />
          </mxGeometry>
        </mxCell>
        <mxCell id="wttlkCXd7JM-oypYrL47-30" style="edgeStyle=orthogonalEdgeStyle;rounded=0;orthogonalLoop=1;jettySize=auto;html=1;" parent="1" source="wttlkCXd7JM-oypYrL47-17" target="wttlkCXd7JM-oypYrL47-23" edge="1">
          <mxGeometry relative="1" as="geometry" />
        </mxCell>
        <mxCell id="wttlkCXd7JM-oypYrL47-17" value="&lt;p style=&quot;margin: 6px 0px 0px;&quot;&gt;&lt;b&gt;&lt;font style=&quot;font-size: 16px;&quot;&gt;ImageController&lt;/font&gt;&lt;/b&gt;&lt;/p&gt;" style="align=center;overflow=fill;html=1;dropTarget=0;whiteSpace=wrap;" parent="1" vertex="1">
          <mxGeometry x="590" y="400" width="180" height="90" as="geometry" />
        </mxCell>
        <mxCell id="wttlkCXd7JM-oypYrL47-18" value="" style="shape=component;jettyWidth=8;jettyHeight=4;" parent="wttlkCXd7JM-oypYrL47-17" vertex="1">
          <mxGeometry x="1" width="20" height="20" relative="1" as="geometry">
            <mxPoint x="-24" y="4" as="offset" />
          </mxGeometry>
        </mxCell>
        <mxCell id="wttlkCXd7JM-oypYrL47-19" value="&lt;p style=&quot;margin: 6px 0px 0px;&quot;&gt;&lt;b&gt;&lt;font style=&quot;font-size: 16px;&quot;&gt;TagService&lt;/font&gt;&lt;/b&gt;&lt;/p&gt;" style="align=center;overflow=fill;html=1;dropTarget=0;whiteSpace=wrap;" parent="1" vertex="1">
          <mxGeometry x="810" y="400" width="180" height="90" as="geometry" />
        </mxCell>
        <mxCell id="wttlkCXd7JM-oypYrL47-20" value="" style="shape=component;jettyWidth=8;jettyHeight=4;" parent="wttlkCXd7JM-oypYrL47-19" vertex="1">
          <mxGeometry x="1" width="20" height="20" relative="1" as="geometry">
            <mxPoint x="-24" y="4" as="offset" />
          </mxGeometry>
        </mxCell>
        <mxCell id="wttlkCXd7JM-oypYrL47-21" value="&lt;p style=&quot;margin: 6px 0px 0px;&quot;&gt;&lt;font style=&quot;font-size: 16px;&quot;&gt;&lt;b&gt;SocialShareService&lt;/b&gt;&lt;/font&gt;&lt;/p&gt;" style="align=center;overflow=fill;html=1;dropTarget=0;whiteSpace=wrap;" parent="1" vertex="1">
          <mxGeometry x="1021" y="400" width="220" height="90" as="geometry" />
        </mxCell>
        <mxCell id="wttlkCXd7JM-oypYrL47-22" value="" style="shape=component;jettyWidth=8;jettyHeight=4;" parent="wttlkCXd7JM-oypYrL47-21" vertex="1">
          <mxGeometry x="1" width="20" height="20" relative="1" as="geometry">
            <mxPoint x="-24" y="4" as="offset" />
          </mxGeometry>
        </mxCell>
        <mxCell id="wttlkCXd7JM-oypYrL47-23" value="&lt;p style=&quot;margin:0px;margin-top:6px;text-align:center;&quot;&gt;&lt;font style=&quot;font-size: 16px;&quot;&gt;&lt;b&gt;Anti-IAFilterController&lt;/b&gt;&lt;/font&gt;&lt;/p&gt;" style="align=left;overflow=fill;html=1;dropTarget=0;whiteSpace=wrap;" parent="1" vertex="1">
          <mxGeometry x="560" y="540" width="240" height="90" as="geometry" />
        </mxCell>
        <mxCell id="wttlkCXd7JM-oypYrL47-24" value="" style="shape=component;jettyWidth=8;jettyHeight=4;" parent="wttlkCXd7JM-oypYrL47-23" vertex="1">
          <mxGeometry x="1" width="20" height="20" relative="1" as="geometry">
            <mxPoint x="-24" y="4" as="offset" />
          </mxGeometry>
        </mxCell>
        <mxCell id="wttlkCXd7JM-oypYrL47-25" value="FrontEnd" style="text;html=1;align=center;verticalAlign=middle;resizable=0;points=[];autosize=1;strokeColor=none;fillColor=none;" parent="1" vertex="1">
          <mxGeometry x="140" y="38" width="70" height="30" as="geometry" />
        </mxCell>
        <mxCell id="wttlkCXd7JM-oypYrL47-26" value="BackEnd" style="text;html=1;align=center;verticalAlign=middle;resizable=0;points=[];autosize=1;strokeColor=none;fillColor=none;" parent="1" vertex="1">
          <mxGeometry x="130" y="338" width="70" height="30" as="geometry" />
        </mxCell>
        <mxCell id="wttlkCXd7JM-oypYrL47-32" style="edgeStyle=orthogonalEdgeStyle;rounded=0;orthogonalLoop=1;jettySize=auto;html=1;entryX=0.402;entryY=0.077;entryDx=0;entryDy=0;entryPerimeter=0;" parent="1" source="wttlkCXd7JM-oypYrL47-8" target="wttlkCXd7JM-oypYrL47-21" edge="1">
          <mxGeometry relative="1" as="geometry" />
        </mxCell>
      </root>
    </mxGraphModel>
  </diagram>
</mxfile>
